<?xml version="1.0" encoding="iso-8859-1"?>
<!-- Generator: Adobe Illustrator 19.0.0, SVG Export Plug-In . SVG Version: 6.00 Build 0)  -->
<svg version="1.1" id="Layer_1" xmlns="http://www.w3.org/2000/svg" xmlns:xlink="http://www.w3.org/1999/xlink" x="0px" y="0px"
	 viewBox="0 0 512 512" style="enable-background:new 0 0 512 512;" xml:space="preserve">
<g transform="translate(1 1)">
	<polygon style="fill:#FFE100;" points="212.333,212.333 212.333,212.333 212.333,314.733 152.6,314.733 255,502.467 357.4,314.733 
		297.667,314.733 297.667,212.333 	"/>
	<polyline style="fill:#FFA800;" points="357.4,314.733 255,502.467 391.533,314.733 	"/>
	<polyline style="fill:#FFFFFF;" points="118.467,314.733 255,502.467 255,502.467 152.6,314.733 	"/>
	<path style="fill:#FFE100;" d="M229.4,24.6L229.4,24.6c0-9.387,7.68-17.067,17.067-17.067h17.067
		c9.387,0,17.067,7.68,17.067,17.067l0,0c0,9.387-7.68,17.067-17.067,17.067h-17.067C237.08,41.667,229.4,33.987,229.4,24.6"/>
	<path style="fill:#FFFFFF;" d="M229.4,24.6c0-9.387,7.68-17.067,17.067-17.067H229.4c-9.387,0-17.067,7.68-17.067,17.067
		s7.68,17.067,17.067,17.067h17.067C237.08,41.667,229.4,33.987,229.4,24.6"/>
	<path style="fill:#FFA800;" d="M280.6,7.533h-17.067c9.387,0,17.067,7.68,17.067,17.067s-7.68,17.067-17.067,17.067H280.6
		c9.387,0,17.067-7.68,17.067-17.067S289.987,7.533,280.6,7.533"/>
	<path style="fill:#FFE100;" d="M229.4,92.867L229.4,92.867c0-9.387,7.68-17.067,17.067-17.067h17.067
		c9.387,0,17.067,7.68,17.067,17.067l0,0c0,9.387-7.68,17.067-17.067,17.067h-17.067C237.08,109.933,229.4,102.253,229.4,92.867"/>
	<path style="fill:#FFFFFF;" d="M229.4,92.867c0-9.387,7.68-17.067,17.067-17.067H229.4c-9.387,0-17.067,7.68-17.067,17.067
		s7.68,17.067,17.067,17.067h17.067C237.08,109.933,229.4,102.253,229.4,92.867"/>
	<path style="fill:#FFA800;" d="M280.6,75.8h-17.067c9.387,0,17.067,7.68,17.067,17.067s-7.68,17.067-17.067,17.067H280.6
		c9.387,0,17.067-7.68,17.067-17.067S289.987,75.8,280.6,75.8"/>
	<path style="fill:#FFE100;" d="M229.4,161.133L229.4,161.133c0-9.387,7.68-17.067,17.067-17.067h17.067
		c9.387,0,17.067,7.68,17.067,17.067l0,0c0,9.387-7.68,17.067-17.067,17.067h-17.067C237.08,178.2,229.4,170.52,229.4,161.133"/>
	<path style="fill:#FFFFFF;" d="M229.4,161.133c0-9.387,7.68-17.067,17.067-17.067H229.4c-9.387,0-17.067,7.68-17.067,17.067
		s7.68,17.067,17.067,17.067h17.067C237.08,178.2,229.4,170.52,229.4,161.133"/>
	<path style="fill:#FFA800;" d="M280.6,144.067h-17.067c9.387,0,17.067,7.68,17.067,17.067s-7.68,17.067-17.067,17.067H280.6
		c9.387,0,17.067-7.68,17.067-17.067S289.987,144.067,280.6,144.067"/>
	<path d="M255,511c-2.56,0-5.12-1.707-6.827-3.413L198.68,439.32c-2.56-3.413-1.707-9.387,1.707-11.947
		c3.413-2.56,9.387-1.707,11.947,1.707L255,487.96l119.467-164.693h-76.8c-5.12,0-8.533-3.413-8.533-8.533v-93.867h-68.267v93.867
		c0,5.12-3.413,8.533-8.533,8.533h-76.8l40.96,57.173c2.56,3.413,1.707,9.387-1.707,11.947c-3.413,2.56-9.387,1.707-11.947-1.707
		l-51.2-69.973c-1.707-2.56-2.56-5.973-0.853-8.533c1.707-4.267,4.267-5.973,7.68-5.973H203.8v-93.867
		c0-5.12,3.413-8.533,8.533-8.533h85.333c5.12,0,8.533,3.413,8.533,8.533V306.2h85.333c3.413,0,5.973,1.707,7.68,4.267
		c1.707,2.56,0.853,5.973-0.853,8.533L261.827,506.733C260.12,509.293,257.56,511,255,511z"/>
	<path d="M195.267,408.6c0-5.12-3.413-8.533-8.533-8.533c-5.12,0-8.533,3.413-8.533,8.533c0,5.12,3.413,8.533,8.533,8.533
		S195.267,413.72,195.267,408.6"/>
	<path d="M280.6,186.733h-51.2c-14.507,0-25.6-11.093-25.6-25.6c0-14.507,11.093-25.6,25.6-25.6h51.2
		c14.507,0,25.6,11.093,25.6,25.6C306.2,175.64,295.107,186.733,280.6,186.733z M229.4,152.6c-5.12,0-8.533,3.413-8.533,8.533
		c0,5.12,3.413,8.533,8.533,8.533h51.2c5.12,0,8.533-3.413,8.533-8.533c0-5.12-3.413-8.533-8.533-8.533H229.4z"/>
	<path d="M280.6,118.467h-51.2c-14.507,0-25.6-11.093-25.6-25.6s11.093-25.6,25.6-25.6h51.2c14.507,0,25.6,11.093,25.6,25.6
		S295.107,118.467,280.6,118.467z M229.4,84.333c-5.12,0-8.533,3.413-8.533,8.533s3.413,8.533,8.533,8.533h51.2
		c5.12,0,8.533-3.413,8.533-8.533s-3.413-8.533-8.533-8.533H229.4z"/>
	<path d="M280.6,50.2h-51.2c-14.507,0-25.6-11.093-25.6-25.6S214.893-1,229.4-1h51.2c14.507,0,25.6,11.093,25.6,25.6
		S295.107,50.2,280.6,50.2z M229.4,16.067c-5.12,0-8.533,3.413-8.533,8.533s3.413,8.533,8.533,8.533h51.2
		c5.12,0,8.533-3.413,8.533-8.533s-3.413-8.533-8.533-8.533H229.4z"/>
</g>
<g>
</g>
<g>
</g>
<g>
</g>
<g>
</g>
<g>
</g>
<g>
</g>
<g>
</g>
<g>
</g>
<g>
</g>
<g>
</g>
<g>
</g>
<g>
</g>
<g>
</g>
<g>
</g>
<g>
</g>
</svg>
